<svg xmlns="http://www.w3.org/2000/svg" width="64" height="64" viewBox="0 0 16 16">
  <path d="M0 1.146C0 .513.526 0 1.175 0h13.65C15.474 0 16 .513 16 1.146v13.708c0 .633-.526 1.146-1.175 1.146H1.175C.526 16 0 15.487 0 14.854V1.146zm4.943 3.478a1.127 1.127 0 1 0 0-2.253 1.127 1.127 0 0 0 0 2.253zm-1.06 1.728h2.12v7.538h-2.12V5.352zm3.465 0h2.03v1.116h.029c.283-.537 1.008-1.104 2.077-1.104 2.22 0 2.63 1.462 2.63 3.363v4.163h-2.12V9.17c0-.792-.014-1.81-1.104-1.81-1.106 0-1.275.864-1.275 1.756v3.774H7.348V5.352z"/>
</svg>